<?xml version="1.0" encoding="UTF-8" standalone="no" ?>
<!DOCTYPE svg PUBLIC "-//W3C//DTD SVG 1.1//EN" "http://www.w3.org/Graphics/SVG/1.1/DTD/svg11.dtd">
<svg xmlns="http://www.w3.org/2000/svg" xmlns:xlink="http://www.w3.org/1999/xlink" version="1.1" width="1080" height="1080" viewBox="0 0 1080 1080" xml:space="preserve">
<desc>Created with Fabric.js 5.2.4</desc>
<defs>
</defs>
<g transform="matrix(1 0 0 1 540 540)" id="49d38de5-3847-4973-8346-12d467243d61"  >
</g>
<g transform="matrix(1 0 0 1 540 540)" id="b5f4d361-caac-452d-9289-66d9ce98203f"  >
<rect style="stroke: none; stroke-width: 1; stroke-dasharray: none; stroke-linecap: butt; stroke-dashoffset: 0; stroke-linejoin: miter; stroke-miterlimit: 4; fill: rgb(255,255,255); fill-rule: nonzero; opacity: 1; visibility: hidden;" vector-effect="non-scaling-stroke"  x="-540" y="-540" rx="0" ry="0" width="1080" height="1080" />
</g>
<g transform="matrix(45 0 0 45 540 540)"  >
<path style="stroke: none; stroke-width: 1; stroke-dasharray: none; stroke-linecap: butt; stroke-dashoffset: 0; stroke-linejoin: miter; stroke-miterlimit: 4; fill: rgb(125,133,146); fill-rule: evenodd; opacity: 1;"  transform=" translate(-12, -12.85)" d="M 12 3.85352 C 8.6202 3.85352 5.66131 5.48601 3.14546 8.16957 C 2.28113 9.09153 1.5305 10.076 0.894336 11.061 L 0.655978 11.4384 C 0.398798 11.8553 0.214904 12.1876 0.105573 12.4063 C -0.0351909 12.6878 -0.0351909 13.0192 0.105573 13.3007 L 0.217516 13.5153 C 0.36935 13.7965 0.595382 14.1831 0.894336 14.646 C 1.5305 15.6311 2.28113 16.6155 3.14546 17.5375 C 5.66131 20.221 8.6202 21.8535 12 21.8535 C 15.3798 21.8535 18.3387 20.221 20.8545 17.5375 C 21.7189 16.6155 22.4695 15.6311 23.1057 14.646 L 23.344 14.2686 C 23.6012 13.8517 23.7851 13.5194 23.8944 13.3007 C 24.0352 13.0192 24.0352 12.6878 23.8944 12.4063 L 23.7825 12.1917 C 23.6306 11.9105 23.4046 11.5239 23.1057 11.061 C 22.4695 10.076 21.7189 9.09153 20.8545 8.16957 C 18.3387 5.48601 15.3798 3.85352 12 3.85352 Z M 12 5.85352 C 14.7452 5.85352 17.2238 7.22102 19.3955 9.53746 C 20.1718 10.3655 20.8508 11.2561 21.4256 12.146 L 21.5707 12.3744 L 21.7054 12.5934 L 21.858 12.8535 L 21.7054 13.1136 C 21.6191 13.2563 21.5259 13.4057 21.4256 13.561 C 20.8508 14.451 20.1718 15.3415 19.3955 16.1696 C 17.2238 18.486 14.7452 19.8535 12 19.8535 C 9.2548 19.8535 6.77619 18.486 4.60454 16.1696 C 3.82825 15.3415 3.14919 14.451 2.57441 13.561 L 2.42925 13.3326 L 2.29461 13.1136 L 2.141 12.8535 L 2.29461 12.5934 C 2.38085 12.4507 2.47415 12.3013 2.57441 12.146 C 3.14919 11.2561 3.82825 10.3655 4.60454 9.53746 C 6.77619 7.22102 9.2548 5.85352 12 5.85352 Z M 12 8.85352 C 9.79086 8.85352 8 10.6444 8 12.8535 C 8 15.0627 9.79086 16.8535 12 16.8535 C 14.2091 16.8535 16 15.0627 16 12.8535 C 16 10.6444 14.2091 8.85352 12 8.85352 Z M 12 10.8535 C 13.1046 10.8535 14 11.7489 14 12.8535 C 14 13.9581 13.1046 14.8535 12 14.8535 C 10.8954 14.8535 10 13.9581 10 12.8535 C 10 11.7489 10.8954 10.8535 12 10.8535 Z" stroke-linecap="round" />
</g>
<g transform="matrix(10.7 -10.7 2.59 2.59 556.23 512.31)"  >
<path style="stroke: rgb(0,0,0); stroke-width: 0; stroke-dasharray: none; stroke-linecap: butt; stroke-dashoffset: 0; stroke-linejoin: miter; stroke-miterlimit: 4; fill: rgb(125,133,146); fill-rule: nonzero; opacity: 1;" vector-effect="non-scaling-stroke"  transform=" translate(-50, -50)" d="M 94.75 50 C 94.75 56.213 89.514 61.25 83.054 61.25 L 16.946 61.25 C 10.486 61.25 5.25 56.213 5.25 50 L 5.25 50 C 5.25 43.787 10.486 38.75 16.945999999999998 38.75 L 83.053 38.75 C 89.514 38.75 94.75 43.787 94.75 50 L 94.75 50 z" stroke-linecap="round" />
</g>
<g transform="matrix(0 0 0 0 0 0)"  >
<g style=""   >
</g>
</g>
</svg>