<svg width="500" height="374" viewBox="0 0 500 374" fill="none" xmlns="http://www.w3.org/2000/svg">
<g opacity="0.917411" clip-path="url(#clip0_108_9343)">
<mask id="mask0_108_9343" style="mask-type:luminance" maskUnits="userSpaceOnUse" x="0" y="327" width="500" height="2">
<path fill-rule="evenodd" clip-rule="evenodd" d="M0 327.854H500V328.854H0V327.854Z" fill="white"/>
</mask>
<g mask="url(#mask0_108_9343)">
<path fill-rule="evenodd" clip-rule="evenodd" d="M0 328.479H500V328.229H0V328.479Z" fill="#E4E4DE"/>
</g>
<path fill-rule="evenodd" clip-rule="evenodd" d="M397 344.479H450V344.229H397V344.479Z" fill="#E4E4DE"/>
<path fill-rule="evenodd" clip-rule="evenodd" d="M273 341.479H332V341.229H273V341.479Z" fill="#E4E4DE"/>
<path fill-rule="evenodd" clip-rule="evenodd" d="M380 340.479H399V340.229H380V340.479Z" fill="#E4E4DE"/>
<path fill-rule="evenodd" clip-rule="evenodd" d="M100 337.479H143V337.229H100V337.479Z" fill="#D0D9E6"/>
<path fill-rule="evenodd" clip-rule="evenodd" d="M79 337.479H94V337.229H79V337.479Z" fill="#D0D9E6"/>
<path fill-rule="evenodd" clip-rule="evenodd" d="M131 341.479H185V341.229H131V341.479Z" fill="#D0D9E6"/>
<path fill-rule="evenodd" clip-rule="evenodd" d="M43.708 1.10352C40.698 1.10352 38.25 3.55252 38.25 6.56152V277.993C38.25 281.003 40.698 283.451 43.708 283.451H236.807C239.815 283.451 242.264 281.003 242.264 277.993V6.56152C242.264 3.55252 239.815 1.10352 236.807 1.10352H43.708ZM236.807 283.701H43.708C40.56 283.701 38 281.141 38 277.993V6.56152C38 3.41452 40.56 0.853516 43.708 0.853516H236.807C239.953 0.853516 242.514 3.41452 242.514 6.56152V277.993C242.514 281.141 239.953 283.701 236.807 283.701Z" fill="#D0D9E6"/>
<path fill-rule="evenodd" clip-rule="evenodd" d="M260.707 1.10352C257.698 1.10352 255.25 3.55252 255.25 6.56152V277.993C255.25 281.003 257.698 283.451 260.707 283.451H453.806C456.815 283.451 459.264 281.003 459.264 277.993V6.56152C459.264 3.55252 456.815 1.10352 453.806 1.10352H260.707ZM453.806 283.701H260.707C257.56 283.701 255 281.141 255 277.993V6.56152C255 3.41452 257.56 0.853516 260.707 0.853516H453.806C456.953 0.853516 459.514 3.41452 459.514 6.56152V277.993C459.514 281.141 456.953 283.701 453.806 283.701Z" fill="#D0D9E6"/>
<path fill-rule="evenodd" clip-rule="evenodd" d="M117.873 267.854H57.1272C54.307 267.854 52 265.632 52 262.916V260.791C52 258.074 54.307 255.854 57.1272 255.854H117.873C120.692 255.854 123 258.074 123 260.791V262.916C123 265.632 120.692 267.854 117.873 267.854Z" fill="#E3ECFA"/>
<path fill-rule="evenodd" clip-rule="evenodd" d="M71 267.854H61.1752L50 327.854H59.8248L71 267.854Z" fill="#DAE2F0"/>
<path fill-rule="evenodd" clip-rule="evenodd" d="M92 267.854H81.746L76 327.854H86.254L92 267.854Z" fill="#DAE2F0"/>
<path fill-rule="evenodd" clip-rule="evenodd" d="M103 267.854H112.825L124 327.854H114.176L103 267.854Z" fill="#DAE2F0"/>
<path fill-rule="evenodd" clip-rule="evenodd" d="M197 220.854H431V16.8535H197V220.854Z" fill="#DAE2F0"/>
<path fill-rule="evenodd" clip-rule="evenodd" d="M200 220.854H437V16.8535H200V220.854Z" fill="#E3ECFA"/>
<path fill-rule="evenodd" clip-rule="evenodd" d="M197 223.854H431V219.854H197V223.854Z" fill="#DDDED8"/>
<path fill-rule="evenodd" clip-rule="evenodd" d="M204 223.854H441V219.854H204V223.854Z" fill="#DAE2F0"/>
<path fill-rule="evenodd" clip-rule="evenodd" d="M210 213.854H428V22.8535H210V213.854Z" fill="#FCFEFF"/>
<path fill-rule="evenodd" clip-rule="evenodd" d="M280 213.854L320.904 22.8535H348L307.096 213.854H280Z" fill="#FFFFFE"/>
<path fill-rule="evenodd" clip-rule="evenodd" d="M248 213.854L288.903 22.8535H316L275.097 213.854H248Z" fill="#FFFFFE"/>
<path fill-rule="evenodd" clip-rule="evenodd" d="M215 23.3693V201.338C215 201.622 215.404 201.854 215.903 201.854H217.098C217.597 201.854 218 201.622 218 201.338V23.3693C218 23.084 217.597 22.8535 217.098 22.8535H215.903C215.404 22.8535 215 23.084 215 23.3693Z" fill="#EAEAE5"/>
<path fill-rule="evenodd" clip-rule="evenodd" d="M350 213.854L391.327 22.8535H402L360.673 213.854H350Z" fill="#FFFFFE"/>
<path fill-rule="evenodd" clip-rule="evenodd" d="M427 213.854H428V22.8535H427V213.854Z" fill="#DAE2F0"/>
<path fill-rule="evenodd" clip-rule="evenodd" d="M440 29.8535H438V24.8535H439.222L440 29.8535Z" fill="#E3ECFA"/>
<path fill-rule="evenodd" clip-rule="evenodd" d="M428 29.8535H438V24.8535H428V29.8535Z" fill="#DAE2F0"/>
<path fill-rule="evenodd" clip-rule="evenodd" d="M426.981 30.3145H399.949L401.123 24.8535H426.981V30.3145ZM389.348 30.3145H378.266L378 24.8535H390.522L389.348 30.3145Z" fill="#E3ECFA"/>
<path fill-rule="evenodd" clip-rule="evenodd" d="M399.804 29.8535H389L390.196 24.8535H401L399.804 29.8535Z" fill="#EBF3FF"/>
<path fill-rule="evenodd" clip-rule="evenodd" d="M427 29.8535H428V24.8535H427V29.8535Z" fill="#CCD3E0"/>
<path fill-rule="evenodd" clip-rule="evenodd" d="M440 48.8535H438V43.8535H439.222L440 48.8535Z" fill="#E3ECFA"/>
<path fill-rule="evenodd" clip-rule="evenodd" d="M428 48.8535H438V43.8535H428V48.8535Z" fill="#DAE2F0"/>
<path fill-rule="evenodd" clip-rule="evenodd" d="M427.069 49.3145H396.008L397.182 43.8535H427.069V49.3145ZM385.408 49.3145H379.266L379 43.8535H386.582L385.408 49.3145Z" fill="#E3ECFA"/>
<path fill-rule="evenodd" clip-rule="evenodd" d="M395.803 48.8535H385L386.197 43.8535H397L395.803 48.8535Z" fill="#EBF3FF"/>
<path fill-rule="evenodd" clip-rule="evenodd" d="M427 48.8535H428V43.8535H427V48.8535Z" fill="#CCD3E0"/>
<path fill-rule="evenodd" clip-rule="evenodd" d="M440 67.8535H438V62.8535H439.222L440 67.8535Z" fill="#E3ECFA"/>
<path fill-rule="evenodd" clip-rule="evenodd" d="M428 67.8535H438V62.8535H428V67.8535Z" fill="#DAE2F0"/>
<path fill-rule="evenodd" clip-rule="evenodd" d="M427.156 68.3145H392.067L393.241 62.8535H427.156V68.3145ZM381.466 68.3145H380.266L380 62.8535H382.641L381.466 68.3145Z" fill="#E3ECFA"/>
<path fill-rule="evenodd" clip-rule="evenodd" d="M391.804 67.8535H381L382.197 62.8535H393L391.804 67.8535Z" fill="#EBF3FF"/>
<path fill-rule="evenodd" clip-rule="evenodd" d="M427 67.8535H428V62.8535H427V67.8535Z" fill="#CCD3E0"/>
<path fill-rule="evenodd" clip-rule="evenodd" d="M440 86.8535H438V81.8535H439.222L440 86.8535Z" fill="#E3ECFA"/>
<path fill-rule="evenodd" clip-rule="evenodd" d="M428 86.8535H438V81.8535H428V86.8535Z" fill="#DAE2F0"/>
<path fill-rule="evenodd" clip-rule="evenodd" d="M427 86.8535H388L389.171 81.8535H427V86.8535Z" fill="#E3ECFA"/>
<path fill-rule="evenodd" clip-rule="evenodd" d="M387.868 86.8535H381.256L381 81.8535H389L387.868 86.8535Z" fill="#EBF3FF"/>
<path fill-rule="evenodd" clip-rule="evenodd" d="M427 86.8535H428V81.8535H427V86.8535Z" fill="#CCD3E0"/>
<path fill-rule="evenodd" clip-rule="evenodd" d="M440 104.854H438V99.8535H439.222L440 104.854Z" fill="#E3ECFA"/>
<path fill-rule="evenodd" clip-rule="evenodd" d="M428 104.854H438V99.8535H428V104.854Z" fill="#DAE2F0"/>
<path fill-rule="evenodd" clip-rule="evenodd" d="M427 104.854H384L385.17 99.8535H427V104.854Z" fill="#E3ECFA"/>
<path fill-rule="evenodd" clip-rule="evenodd" d="M382.952 104.854H381.237L381 99.8535H384L382.952 104.854Z" fill="#EBF3FF"/>
<path fill-rule="evenodd" clip-rule="evenodd" d="M427 104.854H428V99.8535H427V104.854Z" fill="#CCD3E0"/>
<path fill-rule="evenodd" clip-rule="evenodd" d="M440 123.854H438V118.854H439.222L440 123.854Z" fill="#E3ECFA"/>
<path fill-rule="evenodd" clip-rule="evenodd" d="M428 123.854H438V118.854H428V123.854Z" fill="#DAE2F0"/>
<path fill-rule="evenodd" clip-rule="evenodd" d="M426 123.854H384.114C383.618 123.083 382.932 122.046 382.107 120.88L382 118.854H426V123.854Z" fill="#E3ECFA"/>
<path fill-rule="evenodd" clip-rule="evenodd" d="M427 123.854H428V118.854H427V123.854Z" fill="#CCD3E0"/>
<path fill-rule="evenodd" clip-rule="evenodd" d="M440 39.8535H438V34.8535H439.222L440 39.8535Z" fill="#E3ECFA"/>
<path fill-rule="evenodd" clip-rule="evenodd" d="M428 39.8535H438V34.8535H428V39.8535Z" fill="#DAE2F0"/>
<path fill-rule="evenodd" clip-rule="evenodd" d="M426.525 40.3145H397.479L398.653 34.8535H426.525V40.3145ZM386.878 40.3145H378.266L378 34.8535H388.052L386.878 40.3145Z" fill="#E3ECFA"/>
<path fill-rule="evenodd" clip-rule="evenodd" d="M397.804 39.8535H387L388.196 34.8535H399L397.804 39.8535Z" fill="#EBF3FF"/>
<path fill-rule="evenodd" clip-rule="evenodd" d="M427 39.8535H428V34.8535H427V39.8535Z" fill="#CCD3E0"/>
<path fill-rule="evenodd" clip-rule="evenodd" d="M440 58.8535H438V53.8535H439.222L440 58.8535Z" fill="#E3ECFA"/>
<path fill-rule="evenodd" clip-rule="evenodd" d="M428 58.8535H438V53.8535H428V58.8535Z" fill="#DAE2F0"/>
<path fill-rule="evenodd" clip-rule="evenodd" d="M426.612 59.3145H393.537L394.711 53.8535H426.612V59.3145ZM382.936 59.3145H379.265L379 53.8535H384.111L382.936 59.3145Z" fill="#E3ECFA"/>
<path fill-rule="evenodd" clip-rule="evenodd" d="M393.804 58.8535H383L384.197 53.8535H395L393.804 58.8535Z" fill="#EBF3FF"/>
<path fill-rule="evenodd" clip-rule="evenodd" d="M427 58.8535H428V53.8535H427V58.8535Z" fill="#CCD3E0"/>
<path fill-rule="evenodd" clip-rule="evenodd" d="M440 76.8535H438V71.8535H439.222L440 76.8535Z" fill="#E3ECFA"/>
<path fill-rule="evenodd" clip-rule="evenodd" d="M428 76.8535H438V71.8535H428V76.8535Z" fill="#DAE2F0"/>
<path fill-rule="evenodd" clip-rule="evenodd" d="M426.7 77.3145H389.597L390.771 71.8535H426.7V77.3145ZM380.031 72.4995L380 71.8535H380.17L380.031 72.4995Z" fill="#E3ECFA"/>
<path fill-rule="evenodd" clip-rule="evenodd" d="M389.798 76.8535H380.241L380 72.445L380.142 71.8535H391L389.798 76.8535Z" fill="#EBF3FF"/>
<path fill-rule="evenodd" clip-rule="evenodd" d="M427 76.8535H428V71.8535H427V76.8535Z" fill="#CCD3E0"/>
<path fill-rule="evenodd" clip-rule="evenodd" d="M440 95.8535H438V90.8535H439.222L440 95.8535Z" fill="#E3ECFA"/>
<path fill-rule="evenodd" clip-rule="evenodd" d="M428 95.8535H438V90.8535H428V95.8535Z" fill="#DAE2F0"/>
<path fill-rule="evenodd" clip-rule="evenodd" d="M427 95.8535H386L387.17 90.8535H427V95.8535Z" fill="#E3ECFA"/>
<path fill-rule="evenodd" clip-rule="evenodd" d="M385.792 95.8535H381.274L381 90.8535H387L385.792 95.8535Z" fill="#EBF3FF"/>
<path fill-rule="evenodd" clip-rule="evenodd" d="M427 95.8535H428V90.8535H427V95.8535Z" fill="#CCD3E0"/>
<path fill-rule="evenodd" clip-rule="evenodd" d="M440 114.854H438V109.854H439.222L440 114.854Z" fill="#E3ECFA"/>
<path fill-rule="evenodd" clip-rule="evenodd" d="M428 114.854H438V109.854H428V114.854Z" fill="#DAE2F0"/>
<path fill-rule="evenodd" clip-rule="evenodd" d="M427 114.854H382.103L382 112.943L382.731 109.854H427V114.854Z" fill="#E3ECFA"/>
<path fill-rule="evenodd" clip-rule="evenodd" d="M382.219 112.854L382.055 109.854H382.945L382.219 112.854Z" fill="#E9E9E4"/>
<path fill-rule="evenodd" clip-rule="evenodd" d="M427 114.854H428V109.854H427V114.854Z" fill="#CCD3E0"/>
<path fill-rule="evenodd" clip-rule="evenodd" d="M440 133.854H438V128.854H439.222L440 133.854Z" fill="#E3ECFA"/>
<path fill-rule="evenodd" clip-rule="evenodd" d="M428 133.854H438V128.854H428V133.854Z" fill="#DAE2F0"/>
<path fill-rule="evenodd" clip-rule="evenodd" d="M426 133.854H387.041C386.659 133.162 386.265 132.481 385.862 131.806C385.273 130.795 384.647 129.816 384 128.854H426V133.854Z" fill="#E3ECFA"/>
<path fill-rule="evenodd" clip-rule="evenodd" d="M427 133.854H428V128.854H427V133.854Z" fill="#CCD3E0"/>
<path fill-rule="evenodd" clip-rule="evenodd" d="M400 328.854H431V235.854H400V328.854Z" fill="#DDDED8"/>
<path fill-rule="evenodd" clip-rule="evenodd" d="M411.962 328.854H431V317.854H392L411.962 328.854Z" fill="#E3ECFA"/>
<path fill-rule="evenodd" clip-rule="evenodd" d="M307 328.854H338V235.854H307V328.854Z" fill="#DAE2F0"/>
<path fill-rule="evenodd" clip-rule="evenodd" d="M322 326.854H431V235.854H322V326.854Z" fill="#E3ECFA"/>
<path fill-rule="evenodd" clip-rule="evenodd" d="M341.038 328.854H322V317.854H361L341.038 328.854Z" fill="#E3ECFA"/>
<path fill-rule="evenodd" clip-rule="evenodd" d="M336 292.854H416V245.854H336V292.854Z" fill="#FCFEFF"/>
<path fill-rule="evenodd" clip-rule="evenodd" d="M336 319.854H416V297.854H336V319.854Z" fill="#FCFEFF"/>
<path fill-rule="evenodd" clip-rule="evenodd" d="M382.793 247.854H368.207C365.884 247.854 364 246.064 364 243.854H387C387 246.064 385.116 247.854 382.793 247.854Z" fill="#E4E4DE"/>
<path fill-rule="evenodd" clip-rule="evenodd" d="M382.793 299.854H368.207C365.884 299.854 364 298.063 364 295.854H387C387 298.063 385.117 299.854 382.793 299.854Z" fill="#E3ECFA"/>
<path fill-rule="evenodd" clip-rule="evenodd" d="M282 328.854H313V235.854H282V328.854Z" fill="#E3ECFA"/>
<path fill-rule="evenodd" clip-rule="evenodd" d="M294.962 328.854H314V317.854H275L294.962 328.854Z" fill="#E3ECFA"/>
<path fill-rule="evenodd" clip-rule="evenodd" d="M190 328.854H221V235.854H190V328.854Z" fill="#DAE2F0"/>
<path fill-rule="evenodd" clip-rule="evenodd" d="M204 326.854H313V235.854H204V326.854Z" fill="#E3ECFA"/>
<path fill-rule="evenodd" clip-rule="evenodd" d="M223.039 328.854H204V317.854H243L223.039 328.854Z" fill="#E3ECFA"/>
<path fill-rule="evenodd" clip-rule="evenodd" d="M219 292.854H299V245.854H219V292.854Z" fill="#FCFEFF"/>
<path fill-rule="evenodd" clip-rule="evenodd" d="M219 319.854H299V297.854H219V319.854Z" fill="#FCFEFF"/>
<path fill-rule="evenodd" clip-rule="evenodd" d="M265.793 247.854H251.207C248.883 247.854 247 246.064 247 243.854H270C270 246.064 268.117 247.854 265.793 247.854Z" fill="#E4E4DE"/>
<path fill-rule="evenodd" clip-rule="evenodd" d="M265.793 299.854H251.207C248.883 299.854 247 298.063 247 295.854H270C270 298.063 268.117 299.854 265.793 299.854Z" fill="#E3ECFA"/>
<path fill-rule="evenodd" clip-rule="evenodd" d="M204 235.854H430V231.854H204V235.854Z" fill="#DAE2F0"/>
<path fill-rule="evenodd" clip-rule="evenodd" d="M190 235.854H205V231.854H190V235.854Z" fill="#D4D5CF"/>
<path fill-rule="evenodd" clip-rule="evenodd" d="M84.6786 241.575C83.2324 205.052 81.6897 168.737 84.8479 150.418L90 146.854C90 146.854 88.8707 150.269 88.2789 206.225C87.8665 245.121 87.3855 243.007 87.3424 240.894C87.3229 239.967 87.3886 239.04 87.5804 241.575H84.6786Z" fill="#DDDED8"/>
<path fill-rule="evenodd" clip-rule="evenodd" d="M92.5274 111.582C100.223 91.4077 118.153 71.926 137.633 63.9571C145.281 60.828 134.262 129.63 106.533 134.064C92.9923 136.23 88.7767 171.099 86.4936 187.854C85.719 154.902 84.8329 131.758 92.5274 111.582Z" fill="#DDDED8"/>
<path fill-rule="evenodd" clip-rule="evenodd" d="M90.4442 162.457C95.8516 153.878 104.693 141.865 117.61 141.854C132.252 141.841 119.439 165.968 102.228 173.673C93.824 177.437 86.8187 189.38 85 196.854C85.1511 181.705 85.0358 171.037 90.4442 162.457Z" fill="#DDDED8"/>
<path fill-rule="evenodd" clip-rule="evenodd" d="M77.5085 137.146C68.0788 120.434 47.0618 103.63 24.686 95.9844C15.9013 92.9823 15.0349 142.484 62.3988 154.33C77.6959 158.156 83.8285 185.238 87 198.854C86.7358 172.409 86.9372 153.856 77.5085 137.146Z" fill="#DAE2F0"/>
<path fill-rule="evenodd" clip-rule="evenodd" d="M83.4865 176.788C77.4192 166.171 60.9252 160.981 46.092 161.973C40.2672 162.362 39.631 184.153 72.0262 192.567C81.8519 195.119 85.8166 212.204 87.8569 220.854C87.6868 204.052 89.5539 187.405 83.4865 176.788Z" fill="#DAE2F0"/>
<path fill-rule="evenodd" clip-rule="evenodd" d="M83.1369 119.993C78.4414 104.992 64.6012 91.5455 51.8983 85.9874C46.9112 83.8053 45.378 108.682 72.6406 133.036C80.9094 140.423 83.5167 161.943 84.8644 172.854C85.4827 153.375 87.8325 134.995 83.1369 119.993Z" fill="#DAE2F0"/>
<path fill-rule="evenodd" clip-rule="evenodd" d="M86.5 255.854C76.5025 255.854 68.2403 255.124 67.6656 241.602L66 223.854H107L105.334 241.602C104.761 255.124 96.4985 255.854 86.5 255.854Z" fill="#E3ECFA"/>
<path fill-rule="evenodd" clip-rule="evenodd" d="M105.835 230.854H65.1648L64 222.854H107L105.835 230.854Z" fill="#E3ECFA"/>
<path opacity="0.601028" fill-rule="evenodd" clip-rule="evenodd" d="M444 362.354C444 368.706 357.144 373.854 250 373.854C142.857 373.854 56 368.706 56 362.354C56 356.003 142.857 350.854 250 350.854C357.144 350.854 444 356.003 444 362.354Z" fill="#E3ECFA"/>
<path fill-rule="evenodd" clip-rule="evenodd" d="M72.9904 63.8535L72 43.9021L73.0096 43.8535L74 63.8049L72.9904 63.8535Z" fill="#3F8CFF"/>
<path fill-rule="evenodd" clip-rule="evenodd" d="M73.3252 80.8535L73 70.9019L73.6748 70.8535L74 80.8042L73.3252 80.8535Z" fill="#3F8CFF"/>
<path fill-rule="evenodd" clip-rule="evenodd" d="M86.5239 247.854C85.579 247.854 84.801 247.11 84.755 246.165L74.0041 24.7156C73.9551 23.7029 74.7611 22.8535 75.7729 22.8535H375.477C376.421 22.8535 377.199 23.5968 377.245 24.5433L387.996 245.992C388.045 247.005 387.239 247.854 386.227 247.854H86.5239Z" fill="#3F8CFF"/>
<path fill-rule="evenodd" clip-rule="evenodd" d="M366.764 244.221H90.1831C89.2371 244.221 88.4581 243.479 88.4131 242.535L78.0021 28.7125C77.9531 27.7015 78.7601 26.8535 79.7731 26.8535H372.583C373.529 26.8535 374.308 27.5955 374.354 28.5405L378.614 116.026C376.533 113.409 374.201 110.967 371.958 109.658C370.359 108.601 368.465 107.939 366.405 107.826C366.264 107.818 366.124 107.811 365.983 107.804C362.345 104.291 363.062 96.9985 364.161 91.7345L353.125 97.8875C353.963 101.419 354.058 105.696 351.181 107.692C350.631 107.724 350.11 107.761 349.623 107.805C347.816 107.969 346.041 108.23 344.459 108.509C344.06 108.58 343.668 108.673 343.286 108.788C341.733 109.22 340.016 110.089 338.154 111.491C330.511 117.247 324.836 129.441 324.836 129.441L326.648 130.435C324.965 132.289 323.216 134.101 321.407 135.88C319.426 137.817 317.441 139.656 315.285 141.672C315.227 141.678 315.167 141.684 315.103 141.688C315.033 141.692 314.96 141.694 314.884 141.694C314.414 141.694 313.834 141.618 313.209 141.459C312.193 141.207 311.076 140.79 309.94 140.266C310.005 139.02 310.062 137.78 310.11 136.559L319.24 136.26C319.769 131.351 319.045 123.176 317.821 114.708C316.776 105.839 314.986 95.7395 313.08 85.4505L303.971 86.0285L301.714 39.6655C301.689 39.1775 301.261 38.8015 300.801 38.8015C300.789 38.8015 300.776 38.8025 300.763 38.8025C300.263 38.8275 299.877 39.2525 299.901 39.7525L302.16 86.1435L264.835 88.5145C264.95 89.0195 265.064 89.5245 265.177 90.0275H265.176C265.178 90.0355 265.18 90.0435 265.182 90.0525C265.361 90.8505 265.537 91.6465 265.711 92.4395C267.162 99.1415 268.283 105.678 269.094 111.927L263.009 110.974C263.106 128.952 261.173 145.41 258.027 158.344L306.115 167.362L309.233 231.41C309.257 231.895 309.658 232.273 310.138 232.273L310.183 232.272C310.683 232.248 311.07 231.822 311.046 231.322L307.66 161.791C308.334 158.283 308.867 154.08 309.273 149.649C309.595 149.797 309.925 149.939 310.264 150.076C311.499 150.564 312.871 150.974 314.441 151.154C314.877 151.205 315.334 151.233 315.805 151.233C317.017 151.233 318.324 151.046 319.614 150.582L320.287 150.339L321.11 149.662C323.429 147.753 326.053 145.671 328.485 143.488C330.616 141.605 332.699 139.635 334.699 137.564C334.712 138.646 334.735 139.767 334.769 140.931C334.782 141.484 334.802 142.054 334.825 142.638C335.11 150.485 335.858 160.138 337.307 171.994H344.78L342.209 180.625L347.579 182.224C347.557 182.371 347.534 182.518 347.512 182.665L353.296 183.926L353.573 184.009C356.716 198.446 362.015 222.741 365.587 238.903C366.005 240.797 366.4 242.58 366.764 244.221ZM160.008 209.966L161.052 231.41C161.077 231.895 161.477 232.273 161.958 232.273L162.003 232.272C162.503 232.248 162.889 231.822 162.865 231.322L161.816 209.782L187.162 207.207C187.034 195.91 181.224 169.674 177.779 159.841L159.491 162.014L157.924 129.84L163.612 129.534C161.054 112.528 159.194 96.1905 158.65 81.1125L155.558 81.2315L153.534 39.6655C153.509 39.1775 153.089 38.8015 152.622 38.8015C152.609 38.8015 152.597 38.8025 152.584 38.8025C152.084 38.8275 151.697 39.2525 151.721 39.7525L153.744 81.3015L111.468 82.9335C111.364 96.7645 112.535 115.441 115.319 132.137L156.112 129.938L157.684 162.229L131.062 165.392C136.03 182.91 136.238 198.787 137.616 212.242L160.008 209.966ZM175.885 96.2265L175.883 144.355L224.428 147.284L224.43 99.1555L175.885 96.2265ZM383.367 213.658C382.013 205.913 380.64 198.282 379.443 191.713L382.341 192.576L383.367 213.658ZM379.867 141.773L375.281 140.773C375.324 139.345 375.38 137.889 375.453 136.412L376.222 135.627C377.549 137.612 378.784 139.624 379.861 141.655L379.867 141.773ZM315.934 141.506L316.052 141.433C316.02 141.458 315.981 141.482 315.934 141.506Z" fill="#F4F9FD"/>
<path d="M104.706 45.9657L102.103 46.0111L102.079 44.6434L108.798 44.5261L108.822 45.8939L106.218 45.9393L106.342 53.0662L104.831 53.0926L104.706 45.9657ZM108.175 50.1538C108.167 49.6979 108.239 49.2845 108.393 48.9138C108.554 48.5349 108.773 48.2111 109.048 47.9422C109.323 47.6734 109.652 47.4636 110.033 47.3129C110.415 47.1623 110.821 47.0831 111.253 47.0756C111.685 47.0681 112.094 47.1329 112.481 47.2702C112.867 47.4075 113.203 47.6057 113.487 47.8647C113.772 48.1238 113.997 48.4399 114.164 48.8131C114.338 49.1781 114.43 49.5886 114.438 50.0445C114.446 50.5004 114.369 50.9178 114.207 51.2967C114.054 51.6674 113.839 51.9872 113.564 52.2561C113.289 52.5249 112.96 52.7347 112.579 52.8854C112.197 53.036 111.791 53.1151 111.359 53.1227C110.927 53.1302 110.518 53.0654 110.131 52.9281C109.745 52.7908 109.409 52.5926 109.125 52.3336C108.84 52.0745 108.611 51.7624 108.436 51.3974C108.27 51.0243 108.182 50.6097 108.175 50.1538ZM109.614 50.1287C109.618 50.3526 109.658 50.568 109.734 50.7747C109.817 50.9813 109.932 51.1633 110.079 51.3207C110.234 51.4781 110.416 51.6029 110.626 51.6953C110.835 51.7876 111.072 51.8315 111.336 51.8269C111.6 51.8223 111.835 51.7702 112.042 51.6705C112.248 51.5709 112.422 51.4399 112.563 51.2774C112.712 51.1148 112.821 50.9288 112.889 50.7196C112.965 50.5102 113.002 50.2936 112.998 50.0696C112.994 49.8456 112.95 49.6304 112.866 49.4238C112.791 49.2171 112.676 49.0351 112.521 48.8778C112.374 48.7203 112.196 48.5954 111.986 48.503C111.777 48.4107 111.54 48.3668 111.276 48.3714C111.012 48.376 110.777 48.4281 110.57 48.5277C110.364 48.6274 110.186 48.7585 110.037 48.9211C109.896 49.0836 109.787 49.2695 109.711 49.4789C109.643 49.6881 109.61 49.9047 109.614 50.1287ZM119.37 44.3415L122.717 44.2831C123.277 44.2733 123.819 44.3519 124.342 44.5188C124.864 44.6777 125.329 44.9296 125.735 45.2746C126.141 45.6196 126.469 46.0579 126.718 46.5896C126.967 47.1134 127.098 47.7352 127.111 48.4551C127.123 49.183 126.995 49.8173 126.724 50.3581C126.461 50.8908 126.113 51.3369 125.679 51.6965C125.253 52.048 124.774 52.3164 124.241 52.5018C123.716 52.679 123.197 52.772 122.686 52.781L119.518 52.8362L119.37 44.3415ZM122.134 51.4224C122.606 51.4141 123.049 51.3544 123.463 51.2432C123.885 51.1238 124.25 50.9494 124.558 50.72C124.866 50.4826 125.105 50.1823 125.274 49.8193C125.452 49.4482 125.536 49.0026 125.527 48.4827C125.518 47.9708 125.43 47.5322 125.264 47.1671C125.098 46.8019 124.868 46.5099 124.577 46.291C124.293 46.0639 123.954 45.9018 123.56 45.8046C123.174 45.6993 122.749 45.6508 122.285 45.6589L120.905 45.6829L121.006 51.4421L122.134 51.4224ZM128.152 49.8051C128.144 49.3492 128.217 48.9358 128.37 48.5651C128.532 48.1862 128.75 47.8624 129.025 47.5935C129.301 47.3247 129.629 47.1149 130.011 46.9642C130.392 46.8135 130.799 46.7344 131.231 46.7269C131.663 46.7194 132.072 46.7842 132.458 46.9215C132.845 47.0588 133.18 47.257 133.465 47.516C133.749 47.7751 133.975 48.0912 134.141 48.4644C134.316 48.8294 134.407 49.2398 134.415 49.6958C134.423 50.1517 134.346 50.5691 134.185 50.948C134.031 51.3187 133.817 51.6385 133.541 51.9074C133.266 52.1762 132.938 52.386 132.556 52.5366C132.175 52.6873 131.768 52.7664 131.336 52.774C130.904 52.7815 130.495 52.7166 130.109 52.5794C129.722 52.4421 129.387 52.2439 129.102 51.9848C128.818 51.7258 128.588 51.4137 128.414 51.0487C128.247 50.6756 128.16 50.261 128.152 49.8051ZM129.592 49.78C129.596 50.0039 129.635 50.2193 129.711 50.426C129.795 50.6326 129.91 50.8146 130.057 50.972C130.211 51.1294 130.394 51.2542 130.603 51.3466C130.813 51.4389 131.05 51.4828 131.314 51.4782C131.578 51.4736 131.813 51.4215 132.019 51.3218C132.225 51.2222 132.399 51.0912 132.54 50.9287C132.689 50.7661 132.798 50.5801 132.867 50.3709C132.943 50.1615 132.979 49.9449 132.975 49.7209C132.971 49.4969 132.928 49.2817 132.844 49.0751C132.768 48.8684 132.653 48.6864 132.498 48.529C132.352 48.3716 132.173 48.2467 131.964 48.1543C131.754 48.062 131.517 48.0181 131.253 48.0227C130.989 48.0273 130.754 48.0794 130.548 48.179C130.342 48.2786 130.164 48.4098 130.015 48.5724C129.874 48.7349 129.765 48.9208 129.688 49.1302C129.62 49.3394 129.588 49.556 129.592 49.78Z" fill="#3F8CFF"/>
<path d="M160.108 44.8871L161.62 44.8608L161.768 53.3555L160.256 53.3818L160.108 44.8871ZM163.399 47.5661L164.767 47.5422L164.783 48.4661L164.807 48.4657C164.938 48.1753 165.141 47.9238 165.418 47.7109C165.694 47.49 166.072 47.3754 166.552 47.3671C166.936 47.3604 167.261 47.4187 167.527 47.5421C167.801 47.6653 168.024 47.8294 168.196 48.0345C168.367 48.2395 168.492 48.4774 168.568 48.7481C168.645 49.0188 168.686 49.3021 168.691 49.5981L168.755 53.2335L167.315 53.2586L167.264 50.3431C167.261 50.1831 167.25 50.0073 167.231 49.8156C167.211 49.6159 167.164 49.4327 167.089 49.266C167.022 49.0911 166.916 48.9489 166.77 48.8395C166.624 48.722 166.426 48.6654 166.179 48.6698C165.939 48.674 165.735 48.7175 165.569 48.8004C165.41 48.8832 165.276 48.9936 165.166 49.1315C165.065 49.2693 164.992 49.4266 164.947 49.6034C164.902 49.7802 164.881 49.9646 164.884 50.1566L164.939 53.3001L163.499 53.3252L163.399 47.5661ZM173.923 44.646L176.778 44.5962C177.186 44.589 177.579 44.6222 177.956 44.6956C178.342 44.7689 178.68 44.899 178.971 45.086C179.262 45.2649 179.495 45.5129 179.668 45.8299C179.85 46.1388 179.945 46.5292 179.953 47.0011C179.962 47.537 179.878 47.9706 179.7 48.3017C179.521 48.6329 179.278 48.8932 178.969 49.0826C178.66 49.264 178.298 49.3904 177.884 49.4616C177.477 49.5327 177.049 49.5722 176.601 49.58L175.522 49.5989L175.583 53.1143L174.071 53.1407L173.923 44.646ZM176.411 48.2871C176.627 48.2834 176.851 48.2715 177.082 48.2514C177.314 48.2314 177.525 48.1797 177.716 48.0963C177.914 48.0129 178.072 47.8901 178.189 47.728C178.315 47.5658 178.375 47.3407 178.37 47.0528C178.365 46.7888 178.305 46.5818 178.191 46.4318C178.076 46.2738 177.93 46.1563 177.752 46.0794C177.575 45.9945 177.378 45.9419 177.162 45.9217C176.945 45.9014 176.737 45.8931 176.537 45.8966L175.457 45.9154L175.499 48.303L176.411 48.2871ZM181.173 47.2559L182.613 47.2307L182.629 48.1426L182.653 48.1422C182.807 47.8034 183.031 47.5395 183.323 47.3503C183.616 47.1612 183.955 47.0633 184.338 47.0566C184.426 47.0551 184.511 47.0616 184.591 47.0762C184.679 47.0906 184.767 47.1091 184.856 47.1316L184.88 48.5234C184.76 48.4935 184.639 48.4716 184.519 48.4577C184.407 48.4356 184.294 48.4256 184.182 48.4275C183.846 48.4334 183.576 48.5021 183.37 48.6337C183.172 48.7572 183.018 48.8999 182.909 49.0618C182.808 49.2236 182.739 49.3849 182.702 49.5455C182.672 49.7061 182.659 49.8263 182.66 49.9063L182.714 52.9898L181.274 53.015L181.173 47.2559ZM185.388 50.0627C185.38 49.6068 185.453 49.1935 185.607 48.8227C185.768 48.4439 185.986 48.12 186.262 47.8511C186.537 47.5823 186.866 47.3725 187.247 47.2219C187.628 47.0712 188.035 46.9921 188.467 46.9845C188.899 46.977 189.308 47.0419 189.695 47.1791C190.081 47.3164 190.417 47.5146 190.701 47.7737C190.986 48.0327 191.211 48.3488 191.378 48.722C191.552 49.087 191.643 49.4975 191.651 49.9534C191.659 50.4093 191.583 50.8267 191.421 51.2056C191.268 51.5763 191.053 51.8961 190.778 52.165C190.502 52.4338 190.174 52.6436 189.793 52.7943C189.411 52.945 189.004 53.0241 188.573 53.0316C188.141 53.0391 187.731 52.9743 187.345 52.837C186.958 52.6997 186.623 52.5015 186.338 52.2425C186.054 51.9834 185.824 51.6714 185.65 51.3063C185.483 50.9332 185.396 50.5187 185.388 50.0627ZM186.828 50.0376C186.832 50.2616 186.872 50.4769 186.947 50.6836C187.031 50.8902 187.146 51.0722 187.293 51.2297C187.448 51.387 187.63 51.5118 187.84 51.6042C188.049 51.6965 188.286 51.7404 188.55 51.7358C188.814 51.7312 189.049 51.6791 189.255 51.5795C189.462 51.4799 189.635 51.3488 189.777 51.1863C189.926 51.0237 190.034 50.8378 190.103 50.6285C190.179 50.4192 190.215 50.2025 190.211 49.9785C190.208 49.7546 190.164 49.5393 190.08 49.3327C190.005 49.126 189.889 48.944 189.735 48.7867C189.588 48.6292 189.41 48.5043 189.2 48.4119C188.99 48.3196 188.754 48.2757 188.49 48.2803C188.226 48.2849 187.991 48.337 187.784 48.4367C187.578 48.5363 187.4 48.6674 187.251 48.83C187.11 48.9925 187.001 49.1784 186.925 49.3878C186.856 49.597 186.824 49.8136 186.828 50.0376ZM198.876 46.9469L198.968 52.1901C198.977 52.71 198.921 53.179 198.8 53.5972C198.68 54.0234 198.486 54.3828 198.219 54.6755C197.96 54.9761 197.628 55.2099 197.223 55.377C196.818 55.5441 196.335 55.6325 195.775 55.6423C195.239 55.6516 194.73 55.5925 194.248 55.4649C193.766 55.3373 193.318 55.0971 192.903 54.7443L193.747 53.5534C194.039 53.8123 194.343 54.011 194.657 54.1496C194.972 54.2881 195.333 54.3538 195.741 54.3467C196.085 54.3407 196.372 54.2877 196.602 54.1876C196.84 54.0875 197.026 53.9522 197.159 53.7819C197.3 53.6114 197.397 53.4057 197.448 53.1647C197.508 52.9316 197.536 52.6711 197.531 52.3832L197.523 51.9632L197.499 51.9636C197.296 52.2472 197.024 52.464 196.683 52.614C196.341 52.756 195.99 52.8301 195.63 52.8364C195.198 52.8439 194.805 52.7748 194.451 52.629C194.096 52.4751 193.788 52.2685 193.528 52.009C193.275 51.7493 193.078 51.4407 192.935 51.0832C192.793 50.7256 192.718 50.3428 192.711 49.9349C192.704 49.511 192.761 49.1139 192.883 48.7437C193.004 48.3736 193.187 48.0503 193.43 47.774C193.673 47.4977 193.965 47.2806 194.306 47.1226C194.656 46.9565 195.054 46.8695 195.502 46.8617C195.91 46.8546 196.291 46.928 196.646 47.0818C197.001 47.2356 197.285 47.4867 197.499 47.835L197.523 47.8346L197.508 46.9707L198.876 46.9469ZM195.825 48.1523C195.569 48.1568 195.338 48.2048 195.131 48.2964C194.925 48.38 194.747 48.4992 194.597 48.6538C194.456 48.8003 194.343 48.9823 194.259 49.1998C194.182 49.4091 194.146 49.6418 194.151 49.8978C194.155 50.1297 194.199 50.345 194.282 50.5436C194.374 50.742 194.497 50.9159 194.651 51.0652C194.806 51.2145 194.988 51.3314 195.198 51.4157C195.407 51.5001 195.632 51.5402 195.872 51.536C196.136 51.5314 196.371 51.4833 196.577 51.3917C196.792 51.2999 196.97 51.1808 197.111 51.0343C197.261 50.8797 197.373 50.6977 197.45 50.4883C197.526 50.2789 197.562 50.0543 197.558 49.8143C197.549 49.3104 197.39 48.9051 197.081 48.5984C196.771 48.2918 196.353 48.1431 195.825 48.1523ZM200.506 46.9184L201.946 46.8933L201.962 47.8051L201.986 47.8047C202.14 47.466 202.364 47.202 202.656 47.0129C202.949 46.8238 203.288 46.7258 203.671 46.7191C203.759 46.7176 203.844 46.7241 203.924 46.7387C204.012 46.7532 204.1 46.7717 204.189 46.7941L204.213 48.1859C204.093 48.156 203.972 48.1341 203.852 48.1202C203.74 48.0982 203.627 48.0881 203.515 48.0901C203.179 48.0959 202.909 48.1647 202.703 48.2963C202.505 48.4197 202.351 48.5624 202.242 48.7244C202.141 48.8862 202.072 49.0474 202.035 49.2081C202.005 49.3686 201.992 49.4889 201.993 49.5689L202.047 52.6524L200.607 52.6775L200.506 46.9184ZM206.17 50.2041C206.225 50.6352 206.399 50.9682 206.691 51.2031C206.983 51.438 207.333 51.552 207.741 51.5448C208.101 51.5386 208.4 51.4613 208.638 51.3132C208.883 51.1569 209.096 50.9651 209.276 50.7379L210.321 51.4998C209.992 51.9216 209.622 52.2241 209.209 52.4074C208.796 52.5906 208.361 52.6862 207.906 52.6941C207.474 52.7017 207.064 52.6368 206.678 52.4995C206.291 52.3623 205.956 52.1641 205.671 51.905C205.387 51.6459 205.157 51.3339 204.983 50.9689C204.816 50.5957 204.729 50.1812 204.721 49.7253C204.713 49.2693 204.786 48.856 204.94 48.4853C205.101 48.1064 205.319 47.7825 205.595 47.5137C205.87 47.2448 206.198 47.0351 206.58 46.8844C206.961 46.7337 207.368 46.6546 207.8 46.6471C208.2 46.6401 208.565 46.7057 208.896 46.844C209.234 46.9741 209.521 47.1691 209.758 47.429C210.002 47.6888 210.192 48.0135 210.327 48.4032C210.47 48.7848 210.545 49.2275 210.554 49.7315L210.561 50.1274L206.17 50.2041ZM209.103 49.0727C209.087 48.6489 208.949 48.3193 208.689 48.0838C208.429 47.8403 208.071 47.7225 207.615 47.7305C207.183 47.738 206.841 47.868 206.589 48.1204C206.346 48.3727 206.2 48.7073 206.151 49.1242L209.103 49.0727ZM214.948 48.2626C214.661 47.8755 214.282 47.6861 213.81 47.6943C213.618 47.6977 213.431 47.749 213.248 47.8482C213.066 47.9474 212.977 48.1049 212.981 48.3209C212.984 48.4969 213.062 48.6235 213.215 48.7009C213.369 48.7782 213.562 48.8428 213.795 48.8948C214.028 48.9467 214.277 49.0024 214.542 49.0618C214.815 49.113 215.068 49.2006 215.302 49.3245C215.537 49.4405 215.731 49.6051 215.887 49.8184C216.043 50.0317 216.124 50.3264 216.131 50.7023C216.137 51.0462 216.066 51.3395 215.918 51.5821C215.778 51.8166 215.589 52.0079 215.352 52.1561C215.122 52.3041 214.86 52.4127 214.565 52.4819C214.271 52.551 213.975 52.5882 213.679 52.5934C213.231 52.6012 212.818 52.5444 212.44 52.423C212.062 52.3015 211.722 52.0754 211.42 51.7447L212.364 50.828C212.552 51.0328 212.751 51.2014 212.961 51.3337C213.179 51.4579 213.44 51.5174 213.744 51.5121C213.848 51.5102 213.956 51.4964 214.068 51.4704C214.179 51.4445 214.283 51.4027 214.378 51.345C214.473 51.2873 214.547 51.218 214.602 51.137C214.664 51.0479 214.695 50.9474 214.693 50.8354C214.689 50.6354 214.611 50.4888 214.457 50.3955C214.303 50.3021 214.11 50.2295 213.877 50.1775C213.644 50.1176 213.391 50.066 213.118 50.0228C212.853 49.9714 212.604 49.8917 212.37 49.7838C212.136 49.6679 211.941 49.5072 211.786 49.3019C211.63 49.0966 211.549 48.81 211.542 48.442C211.537 48.1221 211.596 47.845 211.72 47.6108C211.852 47.3685 212.024 47.1694 212.238 47.0137C212.451 46.8579 212.697 46.7416 212.976 46.6647C213.254 46.5879 213.538 46.5469 213.826 46.5419C214.21 46.5352 214.591 46.5965 214.969 46.726C215.347 46.8474 215.655 47.066 215.893 47.3819L214.948 48.2626ZM220.279 48.1695C219.992 47.7825 219.613 47.593 219.141 47.6013C218.949 47.6046 218.762 47.6559 218.58 47.7551C218.397 47.8543 218.308 48.0119 218.312 48.2279C218.315 48.4038 218.393 48.5305 218.546 48.6078C218.7 48.6851 218.893 48.7498 219.126 48.8017C219.359 48.8537 219.608 48.9093 219.873 48.9687C220.146 49.02 220.399 49.1075 220.634 49.2315C220.868 49.3474 221.063 49.512 221.218 49.7254C221.374 49.9387 221.455 50.2333 221.462 50.6092C221.468 50.9532 221.397 51.2465 221.249 51.4891C221.109 51.7236 220.921 51.9149 220.683 52.063C220.454 52.2111 220.192 52.3197 219.897 52.3888C219.602 52.458 219.306 52.4951 219.01 52.5003C218.563 52.5081 218.149 52.4513 217.771 52.3299C217.393 52.2085 217.053 51.9824 216.751 51.6516L217.695 50.735C217.883 50.9397 218.082 51.1083 218.292 51.2406C218.511 51.3649 218.772 51.4243 219.076 51.419C219.18 51.4172 219.287 51.4033 219.399 51.3774C219.511 51.3514 219.614 51.3096 219.709 51.2519C219.804 51.1943 219.879 51.1249 219.933 51.044C219.996 50.9549 220.026 50.8543 220.024 50.7424C220.02 50.5424 219.942 50.3957 219.788 50.3024C219.635 50.2091 219.441 50.1364 219.208 50.0845C218.975 50.0245 218.722 49.973 218.45 49.9297C218.185 49.8783 217.935 49.7987 217.701 49.6907C217.467 49.5748 217.272 49.4142 217.117 49.2089C216.961 49.0035 216.88 48.7169 216.874 48.349C216.868 48.029 216.927 47.7519 217.051 47.5177C217.183 47.2754 217.356 47.0764 217.569 46.9206C217.782 46.7649 218.028 46.6486 218.307 46.5717C218.586 46.4948 218.869 46.4539 219.157 46.4488C219.541 46.4421 219.922 46.5035 220.3 46.6329C220.678 46.7543 220.986 46.973 221.224 47.2889L220.279 48.1695Z" fill="#3F8CFF"/>
<path d="M237.332 44.8129L238.844 44.7865L238.992 53.2812L237.481 53.3076L237.332 44.8129ZM240.623 47.4919L241.991 47.468L242.007 48.3919L242.031 48.3914C242.162 48.1011 242.366 47.8495 242.642 47.6367C242.918 47.4158 243.296 47.3012 243.776 47.2928C244.16 47.2861 244.485 47.3445 244.752 47.4678C245.026 47.5911 245.249 47.7552 245.42 47.9602C245.592 48.1653 245.716 48.4031 245.793 48.6738C245.87 48.9445 245.911 49.2279 245.916 49.5238L245.979 53.1593L244.539 53.1844L244.488 50.2688C244.486 50.1089 244.475 49.933 244.455 49.7413C244.436 49.5417 244.389 49.3585 244.314 49.1917C244.247 49.0169 244.14 48.8747 243.994 48.7652C243.848 48.6478 243.651 48.5912 243.403 48.5955C243.163 48.5997 242.96 48.6433 242.793 48.7262C242.635 48.809 242.501 48.9193 242.391 49.0573C242.289 49.1951 242.216 49.3524 242.171 49.5292C242.126 49.706 242.105 49.8904 242.109 50.0824L242.164 53.2259L240.724 53.251L240.623 47.4919ZM251.147 44.5718L254.099 44.5202C254.507 44.5131 254.9 44.5463 255.277 44.6197C255.662 44.685 256.004 44.807 256.303 44.9858C256.603 45.1647 256.843 45.4085 257.024 45.7174C257.206 46.0263 257.301 46.4207 257.309 46.9006C257.32 47.5165 257.157 48.0354 256.82 48.4574C256.491 48.8792 256.012 49.1396 255.382 49.2386L257.703 52.9546L255.879 52.9865L253.849 49.4214L252.745 49.4406L252.808 53.0401L251.296 53.0665L251.147 44.5718ZM253.898 48.1243C254.114 48.1205 254.33 48.1088 254.545 48.089C254.761 48.0612 254.956 48.0098 255.131 47.9348C255.313 47.8516 255.459 47.733 255.569 47.5791C255.678 47.4171 255.73 47.1962 255.725 46.9162C255.721 46.6683 255.665 46.4692 255.559 46.319C255.452 46.1689 255.314 46.0593 255.145 45.9902C254.975 45.9132 254.787 45.8645 254.578 45.8441C254.378 45.8236 254.182 45.815 253.99 45.8184L252.682 45.8412L252.722 48.1448L253.898 48.1243ZM259.832 50.5411C259.887 50.9722 260.061 51.3052 260.353 51.5402C260.645 51.7751 260.995 51.889 261.403 51.8819C261.763 51.8756 262.062 51.7984 262.299 51.6502C262.545 51.4939 262.757 51.3022 262.937 51.075L263.983 51.8369C263.654 52.2587 263.283 52.5612 262.87 52.7444C262.458 52.9276 262.023 53.0232 261.567 53.0312C261.135 53.0387 260.726 52.9739 260.34 52.8366C259.953 52.6993 259.618 52.5011 259.333 52.2421C259.049 51.983 258.819 51.671 258.645 51.3059C258.478 50.9328 258.391 50.5183 258.383 50.0623C258.375 49.6064 258.448 49.1931 258.601 48.8223C258.763 48.4434 258.981 48.1196 259.257 47.8507C259.532 47.5819 259.86 47.3721 260.242 47.2215C260.623 47.0708 261.03 46.9917 261.462 46.9841C261.862 46.9771 262.227 47.0428 262.557 47.181C262.896 47.3111 263.183 47.5062 263.42 47.7661C263.664 48.0258 263.854 48.3506 263.989 48.7403C264.131 49.1219 264.207 49.5646 264.216 50.0685L264.223 50.4645L259.832 50.5411ZM262.764 49.4098C262.749 48.986 262.611 48.6563 262.351 48.4208C262.091 48.1773 261.733 48.0596 261.277 48.0675C260.845 48.0751 260.503 48.205 260.251 48.4575C260.008 48.7098 259.861 49.0444 259.813 49.4613L262.764 49.4098ZM264.73 47.0711L266.302 47.0437L267.908 51.0482L267.932 51.0478L269.41 46.9894L270.885 46.9637L268.718 52.7624L267.183 52.7892L264.73 47.0711ZM271.756 46.9485L273.196 46.9233L273.296 52.6825L271.856 52.7076L271.756 46.9485ZM271.518 44.9963C271.514 44.7644 271.594 44.5629 271.759 44.392C271.932 44.213 272.151 44.1211 272.415 44.1165C272.679 44.1119 272.9 44.1921 273.079 44.357C273.266 44.5137 273.361 44.7161 273.366 44.9641C273.37 45.212 273.282 45.4216 273.1 45.5928C272.927 45.7558 272.709 45.8397 272.445 45.8443C272.181 45.8489 271.959 45.7687 271.78 45.6038C271.609 45.4308 271.522 45.2283 271.518 44.9963ZM276.06 50.2579C276.115 50.689 276.289 51.022 276.581 51.2569C276.873 51.4918 277.223 51.6058 277.631 51.5986C277.991 51.5923 278.29 51.5151 278.527 51.367C278.773 51.2107 278.985 51.0189 279.165 50.7917L280.211 51.5536C279.882 51.9754 279.511 52.2779 279.098 52.4612C278.686 52.6444 278.251 52.74 277.795 52.7479C277.363 52.7555 276.954 52.6906 276.568 52.5533C276.181 52.4161 275.846 52.2179 275.561 51.9588C275.277 51.6997 275.047 51.3877 274.873 51.0227C274.706 50.6495 274.619 50.235 274.611 49.7791C274.603 49.3231 274.676 48.9098 274.829 48.5391C274.991 48.1602 275.209 47.8363 275.485 47.5675C275.76 47.2986 276.088 47.0889 276.47 46.9382C276.851 46.7875 277.258 46.7084 277.69 46.7009C278.09 46.6939 278.455 46.7595 278.785 46.8978C279.124 47.0279 279.411 47.2229 279.648 47.4828C279.892 47.7426 280.082 48.0673 280.217 48.457C280.359 48.8386 280.435 49.2813 280.444 49.7853L280.451 50.1812L276.06 50.2579ZM278.992 49.1265C278.977 48.7027 278.839 48.3731 278.579 48.1376C278.319 47.8941 277.961 47.7763 277.505 47.7843C277.073 47.7918 276.731 47.9218 276.479 48.1742C276.236 48.4265 276.089 48.7611 276.041 49.178L278.992 49.1265ZM280.958 46.7878L282.518 46.7606L283.836 50.7702L283.86 50.7698L284.954 46.7181L286.514 46.6909L287.832 50.7005L287.856 50.7001L288.985 46.6477L290.437 46.6224L288.582 52.4156L287.154 52.4406L285.717 48.529L285.693 48.5295L284.55 52.486L283.063 52.512L280.958 46.7878Z" fill="#3F8CFF"/>
<path d="M321.267 44.605L324.614 44.5466C325.174 44.5368 325.716 44.6154 326.239 44.7823C326.761 44.9412 327.226 45.1931 327.632 45.5381C328.038 45.8831 328.366 46.3214 328.615 46.8531C328.864 47.3769 328.995 47.9987 329.008 48.7186C329.02 49.4465 328.891 50.0808 328.621 50.6216C328.358 51.1543 328.01 51.6004 327.576 51.96C327.15 52.3115 326.671 52.5799 326.138 52.7653C325.613 52.9425 325.094 53.0355 324.583 53.0445L321.415 53.0997L321.267 44.605ZM324.031 51.6859C324.503 51.6776 324.946 51.6179 325.36 51.5067C325.782 51.3873 326.147 51.2129 326.455 50.9835C326.763 50.7461 327.002 50.4458 327.171 50.0828C327.349 49.7117 327.433 49.2661 327.424 48.7462C327.415 48.2343 327.327 47.7957 327.161 47.4306C326.995 47.0654 326.765 46.7734 326.474 46.5545C326.19 46.3274 325.851 46.1653 325.457 46.0681C325.071 45.9628 324.646 45.9143 324.182 45.9224L322.802 45.9464L322.903 51.7056L324.031 51.6859ZM330.049 50.0686C330.041 49.6127 330.114 49.1993 330.267 48.8286C330.429 48.4497 330.647 48.1259 330.922 47.857C331.198 47.5882 331.526 47.3784 331.908 47.2277C332.289 47.077 332.696 46.9979 333.128 46.9904C333.56 46.9829 333.969 47.0477 334.355 47.185C334.742 47.3223 335.077 47.5205 335.362 47.7795C335.646 48.0386 335.872 48.3547 336.038 48.7279C336.213 49.0929 336.304 49.5033 336.312 49.9593C336.32 50.4152 336.243 50.8326 336.082 51.2115C335.928 51.5822 335.714 51.902 335.438 52.1709C335.163 52.4397 334.835 52.6495 334.453 52.8001C334.072 52.9508 333.665 53.0299 333.233 53.0375C332.801 53.045 332.392 52.9801 332.006 52.8429C331.619 52.7056 331.284 52.5074 330.999 52.2483C330.715 51.9893 330.485 51.6772 330.311 51.3122C330.144 50.9391 330.057 50.5245 330.049 50.0686ZM331.489 50.0435C331.493 50.2674 331.532 50.4828 331.608 50.6895C331.692 50.8961 331.807 51.0781 331.954 51.2355C332.108 51.3929 332.291 51.5177 332.5 51.6101C332.71 51.7024 332.947 51.7463 333.211 51.7417C333.475 51.7371 333.71 51.685 333.916 51.5853C334.122 51.4857 334.296 51.3547 334.437 51.1922C334.586 51.0296 334.695 50.8436 334.764 50.6344C334.84 50.425 334.876 50.2084 334.872 49.9844C334.868 49.7604 334.825 49.5452 334.741 49.3386C334.665 49.1319 334.55 48.9499 334.395 48.7925C334.249 48.6351 334.07 48.5102 333.861 48.4178C333.651 48.3255 333.414 48.2816 333.15 48.2862C332.886 48.2908 332.651 48.3429 332.445 48.4425C332.239 48.5422 332.061 48.6733 331.912 48.8359C331.771 48.9984 331.662 49.1843 331.585 49.3937C331.517 49.6029 331.485 49.8195 331.489 50.0435ZM337.61 47.0562L338.978 47.0323L338.994 47.9562L339.018 47.9558C339.149 47.6654 339.352 47.4138 339.629 47.201C339.905 46.9801 340.283 46.8655 340.763 46.8571C341.147 46.8504 341.472 46.9088 341.738 47.0321C342.012 47.1554 342.235 47.3195 342.407 47.5245C342.578 47.7296 342.702 47.9674 342.779 48.2381C342.856 48.5088 342.897 48.7922 342.902 49.0881L342.965 52.7236L341.526 52.7487L341.475 49.8332C341.472 49.6732 341.461 49.4973 341.442 49.3057C341.422 49.106 341.375 48.9228 341.3 48.756C341.233 48.5812 341.126 48.439 340.98 48.3296C340.834 48.2121 340.637 48.1555 340.389 48.1598C340.149 48.164 339.946 48.2076 339.78 48.2905C339.621 48.3733 339.487 48.4836 339.377 48.6216C339.276 48.7594 339.202 48.9167 339.158 49.0935C339.113 49.2703 339.092 49.4547 339.095 49.6467L339.15 52.7902L337.71 52.8153L337.61 47.0562ZM345.71 50.2993C345.766 50.7304 345.94 51.0634 346.232 51.2984C346.524 51.5333 346.874 51.6472 347.282 51.6401C347.642 51.6338 347.94 51.5566 348.178 51.4084C348.423 51.2521 348.636 51.0604 348.816 50.8332L349.861 51.5951C349.533 52.0169 349.162 52.3194 348.749 52.5026C348.336 52.6858 347.902 52.7814 347.446 52.7894C347.014 52.7969 346.605 52.7321 346.218 52.5948C345.832 52.4575 345.496 52.2593 345.212 52.0003C344.927 51.7412 344.698 51.4291 344.523 51.0641C344.357 50.691 344.27 50.2764 344.262 49.8205C344.254 49.3646 344.326 48.9513 344.48 48.5805C344.641 48.2016 344.86 47.8778 345.135 47.6089C345.41 47.3401 345.739 47.1303 346.12 46.9796C346.502 46.829 346.908 46.7499 347.34 46.7423C347.74 46.7353 348.105 46.801 348.436 46.9392C348.774 47.0693 349.062 47.2644 349.298 47.5243C349.543 47.784 349.733 48.1088 349.867 48.4985C350.01 48.88 350.086 49.3228 350.095 49.8267L350.102 50.2227L345.71 50.2993ZM348.643 49.168C348.627 48.7442 348.49 48.4145 348.23 48.179C347.969 47.9355 347.611 47.8178 347.155 47.8257C346.723 47.8332 346.382 47.9632 346.13 48.2157C345.886 48.468 345.74 48.8026 345.691 49.2195L348.643 49.168Z" fill="#3F8CFF"/>
<path fill-rule="evenodd" clip-rule="evenodd" d="M162.104 231.854C161.629 231.854 161.234 231.476 161.21 230.993L152.001 39.802C151.977 39.3032 152.359 38.8793 152.853 38.8543C153.327 38.8334 153.765 39.2145 153.79 39.7152L162.999 230.905C163.023 231.404 162.642 231.829 162.148 231.853L162.104 231.854Z" fill="#3F8CFF"/>
<path fill-rule="evenodd" clip-rule="evenodd" d="M310.103 231.854C309.629 231.854 309.234 231.476 309.21 230.993L300.001 39.802C299.977 39.3032 300.358 38.8793 300.852 38.8543C301.319 38.8334 301.764 39.2145 301.79 39.7152L310.999 230.905C311.023 231.404 310.641 231.829 310.147 231.853L310.103 231.854Z" fill="#3F8CFF"/>
<path fill-rule="evenodd" clip-rule="evenodd" d="M236.104 231.854C235.629 231.854 235.234 231.476 235.21 230.993L226.001 39.802C225.977 39.3032 226.358 38.8793 226.853 38.8543C227.34 38.8334 227.765 39.2155 227.79 39.7152L236.999 230.905C237.023 231.404 236.641 231.829 236.147 231.853L236.104 231.854Z" fill="#3F8CFF"/>
<path fill-rule="evenodd" clip-rule="evenodd" d="M367.093 59.8535H88.9072C88.4061 59.8535 88 59.4059 88 58.8535C88 58.3011 88.4061 57.8535 88.9072 57.8535H367.093C367.594 57.8535 368 58.3011 368 58.8535C368 59.4059 367.594 59.8535 367.093 59.8535Z" fill="#3F8CFF"/>
<path fill-rule="evenodd" clip-rule="evenodd" d="M114.857 131.878C112.073 115.182 110.902 96.5055 111.006 82.6745L153.282 81.0425L155.65 129.679L114.857 131.878ZM157.462 129.581L155.096 80.9725L158.188 80.8535C158.732 95.9315 160.592 112.269 163.15 129.275L157.462 129.581Z" fill="#DADFE4"/>
<path fill-rule="evenodd" clip-rule="evenodd" d="M156.266 129.854L154 80.9239L155.736 80.8535L158 129.755L156.266 129.854Z" fill="#B0C9DF"/>
<path fill-rule="evenodd" clip-rule="evenodd" d="M164 127.251L115.939 129.854C113.168 113.166 111.439 96.9916 111 81.4572L159.062 78.8535C159.602 93.9251 161.453 110.254 164 127.251Z" fill="#12499A"/>
<path fill-rule="evenodd" clip-rule="evenodd" d="M224.998 146.854L176 143.928L176.002 95.8535L225 98.7792L224.998 146.854Z" fill="#DADFE4"/>
<path fill-rule="evenodd" clip-rule="evenodd" d="M223.43 145.854L175 142.944L175.57 94.8535L224 97.7617L223.43 145.854Z" fill="#FFFFFE"/>
<path fill-rule="evenodd" clip-rule="evenodd" d="M309.934 136.385C309.964 135.615 309.991 134.852 310.014 134.098L318.324 133.67C318.874 128.57 318.523 121.986 317.645 114.534C318.869 123.002 319.593 131.177 319.064 136.086L309.934 136.385ZM269.292 111.811L268.918 111.753C268.107 105.504 266.986 98.9676 265.535 92.2656C267.013 99.0076 268.303 105.562 269.292 111.811Z" fill="#DADFE4"/>
<path fill-rule="evenodd" clip-rule="evenodd" d="M271.719 135.854L318.736 133.428C319.942 122.217 316.822 103.86 313.309 84.8535L265 87.929C269.026 105.711 271.93 122.357 271.719 135.854Z" fill="#6D5DD3"/>
<path fill-rule="evenodd" clip-rule="evenodd" d="M137.554 212.255C136.176 198.8 135.968 182.923 131 165.405L157.622 162.242L159.946 209.979L137.554 212.255ZM161.754 209.795L159.429 162.027L177.717 159.854C181.162 169.687 186.972 195.923 187.1 207.22L161.754 209.795Z" fill="#DADFE4"/>
<path fill-rule="evenodd" clip-rule="evenodd" d="M160.25 209.854L158 162.069L159.749 161.854L162 209.669L160.25 209.854Z" fill="#B0C9DF"/>
<path fill-rule="evenodd" clip-rule="evenodd" d="M139.153 210.854L186.943 205.696C187.534 194.522 183.432 176.498 178.905 157.854L131 163.506C134.879 180.956 138.63 197.468 139.153 210.854Z" fill="#FDC748"/>
<path fill-rule="evenodd" clip-rule="evenodd" d="M306.088 167.242L258 158.224C261.146 145.29 263.079 128.832 262.982 110.854L269.067 111.807C270.291 121.233 270.809 130.009 270.688 137.727L294.895 136.936C295.509 137.773 296.106 138.518 296.755 139.276C297.464 140.109 298.185 140.938 298.948 141.734C300.475 143.325 302.116 144.837 303.94 146.247C304.321 146.534 304.709 146.819 305.107 147.1L306.088 167.242ZM307.633 161.671L306.983 148.328C307.696 148.756 308.445 149.16 309.246 149.529C308.84 153.96 308.307 158.163 307.633 161.671ZM309.913 140.146C309.414 139.916 308.912 139.665 308.413 139.399C307.774 139.064 307.135 138.706 306.496 138.328L306.41 136.559L310.083 136.439C310.035 137.66 309.978 138.9 309.913 140.146ZM304.623 137.17C304.354 136.997 304.085 136.821 303.816 136.644L304.596 136.618L304.623 137.17Z" fill="#DADFE4"/>
<path fill-rule="evenodd" clip-rule="evenodd" d="M306.624 167.562L306.492 167.537L305.511 147.395C306.112 147.818 306.734 148.231 307.387 148.623L308.037 161.966C307.621 164.133 307.151 166.034 306.624 167.562ZM306.9 138.623C306.275 138.253 305.65 137.866 305.027 137.465L305 136.913L306.814 136.854L306.9 138.623Z" fill="#B0C9DF"/>
<path fill-rule="evenodd" clip-rule="evenodd" d="M270.621 137.774C270.742 130.056 270.224 121.28 269 111.854L269.374 111.912C270.768 120.712 271.565 128.908 271.451 136.187L296.564 134.895L294.628 136.708C294.695 136.801 294.761 136.892 294.828 136.983L270.621 137.774ZM303.749 136.691C303.633 136.614 303.517 136.537 303.402 136.46C302.537 135.9 301.671 135.292 300.821 134.676L304.423 134.491L304.529 136.665L303.749 136.691ZM306.343 136.606L306.236 134.397L310.096 134.199C310.073 134.953 310.046 135.716 310.016 136.486L306.343 136.606Z" fill="#719CC6"/>
<path fill-rule="evenodd" clip-rule="evenodd" d="M304.11 135.854L304 133.936L305.889 133.854L306 135.801L304.11 135.854Z" fill="#83A9CE"/>
<path fill-rule="evenodd" clip-rule="evenodd" d="M271.085 135.854C271.199 128.657 270.399 120.554 269 111.854L309.785 118.143C310.03 121.709 310.074 127.466 309.872 133.888L305.998 134.084L304.178 134.177L300.563 134.36C299.794 133.81 299.038 133.254 298.305 132.717L296.29 134.576L271.085 135.854Z" fill="#3769A4"/>
<path fill-rule="evenodd" clip-rule="evenodd" d="M259 156.017L305.784 163.854C309.406 153.421 310.326 135.236 311 116.348L262.805 108.854C262.902 126.683 262.141 143.189 259 156.017Z" fill="#FFFFFE"/>
<path fill-rule="evenodd" clip-rule="evenodd" d="M372.861 112.854C373.807 113.867 374.605 114.764 375.421 115.751C376.233 116.716 377.024 117.692 377.803 118.682C379.355 120.662 380.841 122.7 382.246 124.814C383.637 126.941 385.007 129.089 386.221 131.38C387.456 133.656 388.614 135.999 389.563 138.522L389.928 139.457L390.019 139.696L390.133 140.039L390.351 140.731C390.466 141.168 390.561 141.592 390.647 142.011C390.711 142.41 390.785 142.82 390.832 143.206C391.01 144.752 391.022 146.163 390.979 147.528C390.899 150.251 390.537 152.805 390.121 155.314C389.232 160.331 387.959 165.095 386.308 169.854L381.111 168.641C381.497 163.912 381.851 159.089 381.98 154.446C382.059 152.127 382.025 149.826 381.874 147.691C381.794 146.627 381.652 145.608 381.453 144.756L381.303 144.161L381.138 143.684L380.576 142.522C378.686 138.63 376.183 134.802 373.517 131.09C372.177 129.233 370.767 127.408 369.342 125.596C368.632 124.688 367.905 123.792 367.169 122.91L365 120.341L372.861 112.854Z" fill="#BE5B52"/>
<path fill-rule="evenodd" clip-rule="evenodd" d="M381.714 166.854L378 170.714L385.247 174.854C385.247 174.854 387.754 171.625 386.772 168.325L381.714 166.854Z" fill="#BD5B52"/>
<path fill-rule="evenodd" clip-rule="evenodd" d="M373 176.485L380.017 178.854L385 174.943L377.795 170.854L373 176.485Z" fill="#BD5B52"/>
<path fill-rule="evenodd" clip-rule="evenodd" d="M392.973 192.854L347 182.826C349.454 166.698 352.73 151.313 357.027 136.854L403 146.88C398.94 160.939 395.731 176.499 392.973 192.854Z" fill="#3769A4"/>
<path fill-rule="evenodd" clip-rule="evenodd" d="M386.691 193.854L342 180.544L355.309 135.854L400 149.162L386.691 193.854Z" fill="#FFFFFE"/>
<path fill-rule="evenodd" clip-rule="evenodd" d="M345.998 82.8811C345.976 83.4333 345.735 83.8684 345.459 83.8531C345.184 83.8398 344.979 83.38 345.002 82.8278C345.024 82.2756 345.265 81.8396 345.541 81.8539C345.816 81.8691 346.021 82.3289 345.998 82.8811Z" fill="#132529"/>
<path fill-rule="evenodd" clip-rule="evenodd" d="M346 83.8535C346 83.8535 344.52 87.4157 343 89.0984C343.964 90.1794 345.71 89.7823 345.71 89.7823L346 83.8535Z" fill="#A92D2F"/>
<path fill-rule="evenodd" clip-rule="evenodd" d="M348.743 79.8506L348.933 79.7587C349.038 79.6516 349.017 79.4968 348.888 79.4121C347.589 78.5706 346.265 78.9252 346.208 78.9411C346.05 78.9852 345.964 79.1256 346.015 79.2544C346.067 79.3824 346.238 79.4505 346.394 79.4078C346.437 79.3969 347.475 79.1299 348.51 79.8007C348.578 79.8448 348.662 79.8607 348.743 79.8506Z" fill="#132529"/>
<path fill-rule="evenodd" clip-rule="evenodd" d="M364.166 91.8535C363.059 97.017 362.338 104.17 366 107.616C366 107.616 364.483 112.854 354.637 112.854C343.81 112.854 349.488 108.257 349.488 108.257C354.006 106.896 354.034 101.901 353.056 97.889L364.166 91.8535Z" fill="#BD5B52"/>
<path fill-rule="evenodd" clip-rule="evenodd" d="M340.089 354.192C339.969 354.192 339.858 354.203 339.759 354.231C339.601 354.273 339.491 354.351 339.422 354.469C339.299 354.68 339.341 354.785 339.384 354.846C339.713 355.311 341.532 355.322 342.872 355.132C342.209 354.79 340.93 354.192 340.089 354.192ZM341.212 355.587C340.289 355.587 339.398 355.459 339.105 355.045C339.002 354.9 338.923 354.653 339.129 354.3C339.244 354.102 339.427 353.968 339.674 353.902C340.875 353.575 343.372 355.009 343.477 355.07L343.559 355.245L343.422 355.385C342.962 355.477 342.072 355.587 341.212 355.587Z" fill="#3769A4"/>
<path fill-rule="evenodd" clip-rule="evenodd" d="M341.781 352.194L341.679 352.2C341.372 352.23 341.35 352.351 341.344 352.391C341.259 352.879 342.412 354.102 343.291 354.634C343.206 354.069 342.965 352.909 342.37 352.416C342.191 352.267 341.997 352.194 341.781 352.194ZM343.499 355.111L343.43 355.096C342.566 354.707 340.866 353.15 341.008 352.337C341.041 352.145 341.18 351.908 341.649 351.86C341.999 351.825 342.313 351.923 342.59 352.153C343.495 352.904 343.664 354.842 343.671 354.924L343.599 355.079L343.499 355.111Z" fill="#3769A4"/>
<path fill-rule="evenodd" clip-rule="evenodd" d="M352 354.854H344.524L344 337.854H351.477L352 354.854Z" fill="#BD5B52"/>
<path fill-rule="evenodd" clip-rule="evenodd" d="M344.287 353.854H352.054C352.345 353.854 352.594 354.054 352.653 354.335L353.977 360.589C354.115 361.237 353.609 361.852 352.938 361.84C350.137 361.793 346.09 361.631 342.57 361.631C338.452 361.631 335.855 361.854 331.026 361.854C328.107 361.854 327.334 358.933 328.559 358.669C334.139 357.464 337.722 357.336 342.568 354.402C343.094 354.083 343.674 353.854 344.287 353.854Z" fill="#0A1629"/>
<path fill-rule="evenodd" clip-rule="evenodd" d="M369.224 108.854C376.22 108.927 386 126.129 386 126.129L375.157 136.854C375.157 136.854 368.05 133.646 364.101 125.82C359.965 117.62 362.071 108.779 369.224 108.854Z" fill="#3769A4"/>
<path fill-rule="evenodd" clip-rule="evenodd" d="M375.376 136.854C375.619 131.717 376.053 126.309 376.772 120.818C376.84 120.302 376.873 119.788 376.874 119.281C376.875 115.404 374.961 111.897 372 109.854C378.153 113.605 385 126.591 385 126.591L383.493 128.197L375.376 136.854Z" fill="#3A81EB"/>
<path fill-rule="evenodd" clip-rule="evenodd" d="M336.443 115.872C334.885 123.593 333.767 139.448 337.603 170.854H375.798C376.091 165.766 373.636 143.564 376.896 119.726C377.776 113.292 372.959 107.471 366.481 107.113C366.341 107.105 366.202 107.098 366.062 107.092C361.186 106.856 354.122 106.701 349.826 107.093C348.033 107.255 346.271 107.515 344.701 107.792C340.552 108.526 337.277 111.739 336.443 115.872Z" fill="#3769A4"/>
<path fill-rule="evenodd" clip-rule="evenodd" d="M376.094 171.284H337.608C336.159 159.428 335.411 149.775 335.126 141.928C338.998 140.951 343.394 137.524 344.914 133.305C348.374 129.8 352.691 124.26 353.097 118.141C353.119 117.807 353.13 117.476 353.13 117.148C353.128 112.056 350.475 107.746 345.886 107.746C345.166 107.746 344.399 107.852 343.587 108.078C343.969 107.963 344.361 107.87 344.76 107.799C346.342 107.52 348.117 107.259 349.924 107.095C351.834 106.921 354.286 106.854 356.853 106.854C360.103 106.854 363.538 106.962 366.284 107.094C366.425 107.101 366.565 107.108 366.706 107.116C372.717 107.448 377.308 112.444 377.305 118.29C377.304 118.792 377.27 119.301 377.2 119.813C375.856 129.633 375.476 139.176 375.476 147.377C375.476 158.043 376.119 166.437 376.119 170.209C376.119 170.624 376.111 170.984 376.094 171.284ZM335.07 140.221C335.036 139.057 335.013 137.936 335 136.854C335.033 136.819 335.067 136.784 335.101 136.749C335.042 137.824 335.04 138.983 335.07 140.221Z" fill="#3F8CFF"/>
<path fill-rule="evenodd" clip-rule="evenodd" d="M334.528 142.854C334.505 142.169 334.485 141.501 334.472 140.854C334.488 141.508 334.507 142.176 334.528 142.854Z" fill="#9AA9B8"/>
<path fill-rule="evenodd" clip-rule="evenodd" d="M335.076 142.854C335.055 142.25 335.036 141.655 335.019 141.072C334.989 139.78 334.991 138.57 335.051 137.448C335.336 137.143 335.62 136.836 335.901 136.528C336.155 136.25 336.408 135.971 336.66 135.69L340.567 137.896C340.567 137.896 342.576 136.382 345 133.854C343.459 138.257 339.002 141.834 335.076 142.854Z" fill="#3576D6"/>
<path fill-rule="evenodd" clip-rule="evenodd" d="M351.197 346.443H351.194L350.935 337.854H350.939L351.197 346.443Z" fill="#BEBFBB"/>
<path fill-rule="evenodd" clip-rule="evenodd" d="M351 346.854H344.242V346.838L344 337.854H350.757L351 346.854Z" fill="#914642"/>
<path fill-rule="evenodd" clip-rule="evenodd" d="M365.931 82.644C365.105 89.7038 364.987 93.8711 361.157 97.3588C355.398 102.603 346.699 99.0083 345.366 91.8759C344.167 85.456 345.719 74.9909 352.91 72.4561C359.996 69.9591 366.758 75.5851 365.931 82.644Z" fill="#BD5B52"/>
<path fill-rule="evenodd" clip-rule="evenodd" d="M351.07 85.1717C348.856 85.6668 347.854 80.509 350.109 78.5283C348.104 77.5379 345.203 76.1038 344.237 73.9478C343.126 71.4719 346.141 68.5008 348.731 68.6246C347.895 66.9736 349.749 62.5556 355.028 64.2234C360.43 65.9288 362.807 68.4592 362.807 68.4592C362.807 68.4592 364.551 62.7378 368.227 67.3589C371.492 71.4659 370.2 74.9738 370.2 74.9738C370.2 74.9738 375.046 79.5186 373.793 82.9017C372.54 86.2858 369.783 87.4822 369.783 87.4822C369.783 87.4822 370.516 95.4349 364.62 97.3453C358.726 99.2567 355.014 95.3229 355.506 93.053C351.696 93.26 347.812 88.225 351.07 85.1717Z" fill="#233862"/>
<path fill-rule="evenodd" clip-rule="evenodd" d="M353.965 85.1423C353.714 87.1 352.688 88.8971 351.522 90.043C349.77 91.766 348.149 90.5334 348.013 88.3009C347.889 86.2914 348.654 82.9732 350.713 82.0874C352.741 81.2153 354.251 82.9035 353.965 85.1423Z" fill="#BD5B52"/>
<path fill-rule="evenodd" clip-rule="evenodd" d="M413 345.531L406.484 347.854L400 331.177L406.516 328.854L413 345.531Z" fill="#BD5B52"/>
<path fill-rule="evenodd" clip-rule="evenodd" d="M401.695 348.258C401.601 348.333 401.521 348.412 401.46 348.494C401.362 348.625 401.324 348.754 401.343 348.889C401.377 349.131 401.475 349.188 401.546 349.209C402.092 349.371 403.528 348.255 404.464 347.278C403.731 347.419 402.356 347.739 401.695 348.258ZM403.441 348.661C402.715 349.232 401.937 349.682 401.449 349.538C401.279 349.488 401.064 349.342 401.008 348.938C400.976 348.712 401.037 348.492 401.19 348.288C401.933 347.289 404.781 346.872 404.902 346.854L405.074 346.942L405.053 347.136C404.748 347.493 404.117 348.129 403.441 348.661Z" fill="#3769A4"/>
<path fill-rule="evenodd" clip-rule="evenodd" d="M401.583 346.387L401.506 346.455C401.284 346.669 401.342 346.777 401.361 346.812C401.596 347.249 403.259 347.497 404.279 347.372C403.862 346.979 402.955 346.217 402.183 346.198C401.951 346.191 401.753 346.254 401.583 346.387ZM404.737 347.618L404.673 347.649C403.754 347.877 401.455 347.705 401.064 346.977C400.972 346.806 400.934 346.534 401.273 346.207C401.526 345.962 401.834 345.845 402.193 345.854C403.37 345.885 404.701 347.304 404.757 347.365L404.796 347.531L404.737 347.618Z" fill="#3769A4"/>
<path fill-rule="evenodd" clip-rule="evenodd" d="M405.51 345.744L411.58 340.989C411.807 340.811 412.135 340.808 412.369 340.982L417.586 344.86C418.126 345.262 418.142 346.032 417.61 346.435C415.39 348.114 411.106 351.553 408.489 353.869C405.429 356.577 407.811 354.767 404.223 357.943C402.053 359.863 399.399 358.303 400.121 357.308C403.409 352.786 404.109 350.093 404.533 347.208C404.619 346.62 405.031 346.12 405.51 345.744Z" fill="#0A1629"/>
<path fill-rule="evenodd" clip-rule="evenodd" d="M300 133.669L297.314 127.854L290 132.405C290 132.405 292.41 137.358 297.4 136.811L300 133.669Z" fill="#BD5B52"/>
<path fill-rule="evenodd" clip-rule="evenodd" d="M290.626 126.452L288.876 127.93C287.74 128.889 287.704 130.6 288.796 131.605L290.155 132.854L298 128.102L293.293 126.064C292.402 125.679 291.364 125.83 290.626 126.452Z" fill="#BD5B52"/>
<path fill-rule="evenodd" clip-rule="evenodd" d="M403.105 340.479L403 340.208L403.105 340.479ZM409.499 338.185L407.826 333.855L407.829 333.854L409.502 338.184L409.499 338.185Z" fill="#BEBFBB"/>
<path fill-rule="evenodd" clip-rule="evenodd" d="M403.35 340.854L403.241 340.567L402 337.302L408.26 333.854L410 338.429L403.35 340.854Z" fill="#914642"/>
<path fill-rule="evenodd" clip-rule="evenodd" d="M351 171.854C351 171.854 363.066 227.271 367.681 247.842C372.735 270.369 399.326 338.854 399.326 338.854L411 332.541C411 332.541 398.512 278.811 389.384 249.499C386.074 225.27 375.955 171.854 375.955 171.854H351Z" fill="#0A1629"/>
<path fill-rule="evenodd" clip-rule="evenodd" d="M396 335.253L398.418 339.854L413 334.337L411.84 329.854L396 335.253Z" fill="#3F8CFF"/>
<path fill-rule="evenodd" clip-rule="evenodd" d="M367.614 248.854C367.539 248.51 367.461 248.177 367.385 247.854C367.387 247.854 367.388 247.854 367.39 247.855C367.461 248.154 367.536 248.46 367.615 248.773C367.614 248.8 367.614 248.827 367.614 248.854Z" fill="#A0A29F"/>
<path fill-rule="evenodd" clip-rule="evenodd" d="M367.568 248.649C367.567 248.648 367.565 248.648 367.563 248.647C367.518 248.447 367.473 248.251 367.431 248.059H367.433C367.477 248.252 367.521 248.449 367.568 248.649Z" fill="#939692"/>
<path fill-rule="evenodd" clip-rule="evenodd" d="M367.905 247.854H367.904C367.898 247.827 367.892 247.799 367.887 247.773C367.642 246.57 367.379 245.259 367.094 243.854H367.097C367.38 245.259 367.646 246.572 367.89 247.776C367.895 247.802 367.9 247.828 367.905 247.854Z" fill="#1D5697"/>
<path fill-rule="evenodd" clip-rule="evenodd" d="M367 243.854H366.998C366.69 242.311 366.355 240.634 366 238.854C366.355 240.635 366.69 242.31 367 243.854Z" fill="#8593A0"/>
<path fill-rule="evenodd" clip-rule="evenodd" d="M367.985 248.854C367.909 248.531 367.837 248.216 367.768 247.909C367.723 247.708 367.679 247.511 367.637 247.317C367.633 247.294 367.627 247.27 367.622 247.247C367.386 246.151 367.129 244.955 366.856 243.675C366.502 242.027 366.121 240.24 365.716 238.338C363.213 226.56 359.829 210.471 357 196.993C357.28 196.899 357.581 196.854 357.896 196.854C358.062 196.854 358.232 196.866 358.405 196.891C367.146 198.1 368.144 230.043 367.985 248.854Z" fill="black"/>
<path fill-rule="evenodd" clip-rule="evenodd" d="M337.621 171.854C337.621 171.854 334.552 225.56 335.056 247.466C335.579 270.25 342.009 344.854 342.009 344.854H354.237C354.237 344.854 356.236 271.581 357.068 249.204C357.976 224.811 363 171.854 363 171.854H337.621Z" fill="#0A1629"/>
<path fill-rule="evenodd" clip-rule="evenodd" d="M339 339.854L339.627 344.854H354.538L355 340.391L339 339.854Z" fill="#3F8CFF"/>
<path fill-rule="evenodd" clip-rule="evenodd" d="M348 120.22C346.343 123.179 344.444 125.979 342.448 128.68C340.425 131.363 338.241 133.9 335.948 136.309C333.662 138.724 331.257 141.004 328.789 143.167C326.355 145.334 323.729 147.4 321.408 149.294L320.584 149.966L319.911 150.207C318.117 150.846 316.294 150.956 314.734 150.775C313.163 150.596 311.79 150.189 310.554 149.705C308.083 148.72 306.094 147.4 304.252 146.024C302.427 144.625 300.784 143.125 299.256 141.546C298.493 140.756 297.771 139.933 297.062 139.106C296.342 138.273 295.687 137.455 295 136.511L298.947 132.846C300.487 133.982 302.134 135.208 303.781 136.265C305.42 137.351 307.076 138.37 308.728 139.228C310.366 140.094 312.038 140.794 313.501 141.154C314.229 141.337 314.895 141.409 315.396 141.381C315.905 141.347 316.199 141.24 316.346 141.128L314.85 142.041C317.292 139.771 319.501 137.754 321.705 135.617C323.885 133.492 325.976 131.318 327.972 129.083C329.951 126.836 331.861 124.548 333.618 122.172C335.394 119.807 336.99 117.341 338.522 114.854L348 120.22Z" fill="#BE5B52"/>
<path fill-rule="evenodd" clip-rule="evenodd" d="M352.967 118.096C352.281 128.292 340.409 136.854 340.409 136.854L325 128.53C325 128.53 330.676 116.515 338.321 110.844C347.766 103.837 353.489 110.335 352.967 118.096Z" fill="#3769A4"/>
<path fill-rule="evenodd" clip-rule="evenodd" d="M340.409 136.854L326.812 129.51L325 128.531C325 128.531 330.676 116.515 338.321 110.844C341.157 108.74 343.658 107.854 345.754 107.854C350.344 107.854 352.998 112.1 353 117.118C353 117.441 352.989 117.767 352.967 118.096C352.281 128.292 340.409 136.854 340.409 136.854Z" fill="#3F8CFF"/>
</g>
<defs>
<clipPath id="clip0_108_9343">
<rect width="500" height="373" fill="white" transform="translate(0 0.853516)"/>
</clipPath>
</defs>
</svg>
