<svg width="24" height="25" viewBox="0 0 24 25" fill="none" xmlns="http://www.w3.org/2000/svg">
    <path fill-rule="evenodd" clip-rule="evenodd" d="M12 3.85352C8.6202 3.85352 5.66131 5.48601 3.14546 8.16957C2.28113 9.09153 1.5305 10.076 0.894336 11.061L0.655978 11.4384C0.398798 11.8553 0.214904 12.1876 0.105573 12.4063C-0.0351909 12.6878 -0.0351909 13.0192 0.105573 13.3007L0.217516 13.5153C0.36935 13.7965 0.595382 14.1831 0.894336 14.646C1.5305 15.6311 2.28113 16.6155 3.14546 17.5375C5.66131 20.221 8.6202 21.8535 12 21.8535C15.3798 21.8535 18.3387 20.221 20.8545 17.5375C21.7189 16.6155 22.4695 15.6311 23.1057 14.646L23.344 14.2686C23.6012 13.8517 23.7851 13.5194 23.8944 13.3007C24.0352 13.0192 24.0352 12.6878 23.8944 12.4063L23.7825 12.1917C23.6306 11.9105 23.4046 11.5239 23.1057 11.061C22.4695 10.076 21.7189 9.09153 20.8545 8.16957C18.3387 5.48601 15.3798 3.85352 12 3.85352ZM12 5.85352C14.7452 5.85352 17.2238 7.22102 19.3955 9.53746C20.1718 10.3655 20.8508 11.2561 21.4256 12.146L21.5707 12.3744L21.7054 12.5934L21.858 12.8535L21.7054 13.1136C21.6191 13.2563 21.5259 13.4057 21.4256 13.561C20.8508 14.451 20.1718 15.3415 19.3955 16.1696C17.2238 18.486 14.7452 19.8535 12 19.8535C9.2548 19.8535 6.77619 18.486 4.60454 16.1696C3.82825 15.3415 3.14919 14.451 2.57441 13.561L2.42925 13.3326L2.29461 13.1136L2.141 12.8535L2.29461 12.5934C2.38085 12.4507 2.47415 12.3013 2.57441 12.146C3.14919 11.2561 3.82825 10.3655 4.60454 9.53746C6.77619 7.22102 9.2548 5.85352 12 5.85352ZM12 8.85352C9.79086 8.85352 8 10.6444 8 12.8535C8 15.0627 9.79086 16.8535 12 16.8535C14.2091 16.8535 16 15.0627 16 12.8535C16 10.6444 14.2091 8.85352 12 8.85352ZM12 10.8535C13.1046 10.8535 14 11.7489 14 12.8535C14 13.9581 13.1046 14.8535 12 14.8535C10.8954 14.8535 10 13.9581 10 12.8535C10 11.7489 10.8954 10.8535 12 10.8535Z" fill="#7D8592"/>
</svg>
